<?xml version="1.0" encoding="iso-8859-1"?>
<!-- Generator: Adobe Illustrator 19.0.0, SVG Export Plug-In . SVG Version: 6.00 Build 0)  -->
<svg fill="#3d5170" width="20" version="1.1" id="Capa_1" xmlns="http://www.w3.org/2000/svg" xmlns:xlink="http://www.w3.org/1999/xlink" x="0px" y="0px"
	 viewBox="0 0 512 512" style="enable-background:new 0 0 512 512;" xml:space="preserve">
<g>
	<g>
		<path d="M503.83,288.681H152.511v-27.709c3.171-1.123,5.447-4.14,5.447-7.695c0-4.512-3.658-8.17-8.17-8.17h-43.574
			c-4.512,0-8.17,3.658-8.17,8.17c0,3.556,2.276,6.572,5.447,7.695v27.709H49.021V89.872c0-40.546,32.986-73.532,73.532-73.532
			c37.783,0,68.988,28.648,73.067,65.362h-16.469c-3.977-27.677-27.838-49.021-56.599-49.021c-31.535,0-57.19,25.656-57.19,57.192
			v169.566c0,4.512,3.658,8.17,8.17,8.17s8.17-3.658,8.17-8.17V89.872c0-22.525,18.325-40.851,40.851-40.851
			c20.068,0,36.79,14.548,40.203,33.65c-15.674,3.464-27.998,15.946-31.21,31.711H128c-4.512,0-8.17,3.658-8.17,8.17
			c0,4.512,3.658,8.17,8.17,8.17h119.83c4.512,0,8.17-3.658,8.17-8.17c0-4.512-3.658-8.17-8.17-8.17h-3.546
			c-3.279-16.092-16.051-28.767-32.188-31.918C208.313,36.364,169.613,0,122.553,0C72.997,0,32.681,40.316,32.681,89.872v198.808
			H8.17c-4.512,0-8.17,3.658-8.17,8.17v59.915c0,4.512,3.658,8.17,8.17,8.17s8.17-3.658,8.17-8.17v-51.745h152.511v89.872
			c0,22.525,18.325,40.851,40.851,40.851h136.17c22.526,0,40.851-18.326,40.851-40.851v-89.872H495.66v68.085
			c0,67.576-54.978,122.553-122.553,122.553H62.638c-25.529,0-46.298-20.769-46.298-46.298v-59.915c0-4.512-3.658-8.17-8.17-8.17
			S0,384.935,0,389.447v59.915C0,483.901,28.099,512,62.638,512h310.468C449.693,512,512,449.693,512,373.106v-76.255
			C512,292.339,508.343,288.681,503.83,288.681z M227.361,114.383h-78.892c3.373-9.509,12.454-16.34,23.105-16.34h32.681
			C214.906,98.043,223.988,104.874,227.361,114.383z M136.17,288.681h-16.34v-27.234h16.34V288.681z M370.383,394.894
			c0,13.515-10.996,24.511-24.511,24.511h-136.17c-13.516,0-24.511-10.996-24.511-24.511v-89.872h185.191V394.894z"/>
	</g>
</g>
<g>
	<g>
		<path d="M334.979,321.362c-4.513,0-8.17,3.658-8.17,8.17v46.298h-98.043v-46.298c0-4.512-3.658-8.17-8.17-8.17
			s-8.17,3.658-8.17,8.17V384c0,4.512,3.658,8.17,8.17,8.17h114.383c4.513,0,8.17-3.658,8.17-8.17v-54.468
			C343.149,325.02,339.492,321.362,334.979,321.362z"/>
	</g>
</g>
<g>
</g>
<g>
</g>
<g>
</g>
<g>
</g>
<g>
</g>
<g>
</g>
<g>
</g>
<g>
</g>
<g>
</g>
<g>
</g>
<g>
</g>
<g>
</g>
<g>
</g>
<g>
</g>
<g>
</g>
</svg>
